<svg xmlns="http://www.w3.org/2000/svg" width="1600" height="900" viewBox="0 0 1600 900" role="img" aria-labelledby="title desc">
  <title id="title">Nevada Horse Properties hero image</title>
  <desc id="desc">Branded equestrian real estate hero art for Henderson and Clark County horse properties.</desc>
  <defs>
    <linearGradient id="bg" x1="0" y1="0" x2="1" y2="1">
      <stop offset="0%" stop-color="#0d0a06" />
      <stop offset="50%" stop-color="#1c1917" />
      <stop offset="100%" stop-color="#292524" />
    </linearGradient>
    <linearGradient id="gold" x1="0" y1="0" x2="1" y2="0">
      <stop offset="0%" stop-color="#d7b273" />
      <stop offset="100%" stop-color="#f3ddb1" />
    </linearGradient>
  </defs>
  <rect width="1600" height="900" fill="url(#bg)" />
  <ellipse cx="1285" cy="170" rx="340" ry="185" fill="#d7b273" opacity="0.08" />
  <ellipse cx="1450" cy="780" rx="310" ry="170" fill="#d7b273" opacity="0.05" />
  <path d="M1065 705c66-47 133-116 164-204 10-30 17-72 56-82 29-8 58 10 70 35 14 29 13 62 7 92-12 67-43 132-95 175-56 47-139 71-209 48 46 1 90-25 104-67-40 13-81 10-119-9 7-16 14-31 22-45z" fill="none" stroke="#f8fafc" stroke-width="16" stroke-linecap="round" stroke-linejoin="round" />
  <path d="M1165 505c24-27 54-45 88-52" fill="none" stroke="#d7b273" stroke-width="10" stroke-linecap="round" />
  <path d="M1100 742h332" stroke="#d7b273" stroke-width="4" stroke-linecap="round" opacity="0.8" />

</svg>
